HIERARCHY
ROOT Hips
{
  OFFSET 5.84602e-005 68.8428 3.50346
  CHANNELS 6 Xposition Yposition Zposition Zrotation Xrotation Yrotation
  JOINT Spine
  {
    OFFSET 0 8.597 -4.6522
    CHANNELS 3 Zrotation Xrotation Yrotation
    JOINT Spine1
    {
      OFFSET 0 7.8454 0.4098
      CHANNELS 3 Zrotation Xrotation Yrotation
      JOINT Spine2
      {
        OFFSET 0 9.7078 -2.1609
        CHANNELS 3 Zrotation Xrotation Yrotation
        JOINT Neck
        {
          OFFSET 0 21.8761 -0.4549
          CHANNELS 3 Zrotation Xrotation Yrotation
          JOINT Head
          {
            OFFSET 0 12.3537 3.3602
            CHANNELS 3 Zrotation Xrotation Yrotation
            End Site
            {
              OFFSET 0.0001 18.9506 0.5657
            }
          }
        }
        JOINT LeftShoulder
        {
          OFFSET 2.2086 21.1115 7.2329
          CHANNELS 3 Zrotation Xrotation Yrotation
          JOINT LeftArm
          {
            OFFSET 13.1193 3.0282 -4.8998
            CHANNELS 3 Zrotation Xrotation Yrotation
            JOINT LeftForeArm
            {
              OFFSET 27.4081 -0.0973053 -0.2375
              CHANNELS 3 Zrotation Xrotation Yrotation
              JOINT LeftHand
              {
                OFFSET 22.8641 0.0662994 -0.1369
                CHANNELS 3 Zrotation Xrotation Yrotation
                JOINT LeftHandIndex1
                {
                  OFFSET 8.8614 0.775009 2.4612
                  CHANNELS 3 Zrotation Xrotation Yrotation
                  JOINT LeftHandIndex2
                  {
                    OFFSET 3.3146 -0.808304 0.5841
                    CHANNELS 3 Zrotation Xrotation Yrotation
                    JOINT LeftHandIndex3
                    {
                      OFFSET 2.2628 -0.552002 0.3989
                      CHANNELS 3 Zrotation Xrotation Yrotation
                      End Site
                      {
                        OFFSET 1.6102 -0.4807 0.2612
                      }
                    }
                  }
                }
                JOINT LeftHandMiddle1
                {
                  OFFSET 8.9937 0.895004 0.2143
                  CHANNELS 3 Zrotation Xrotation Yrotation
                  JOINT LeftHandMiddle2
                  {
                    OFFSET 4.0984 0.0113983 -0.0242
                    CHANNELS 3 Zrotation Xrotation Yrotation
                    JOINT LeftHandMiddle3
                    {
                      OFFSET 2.2716 0.00689697 -0.0138001
                      CHANNELS 3 Zrotation Xrotation Yrotation
                      End Site
                      {
                        OFFSET 2.0404 -0.1441 0.0027
                      }
                    }
                  }
                }
                JOINT LeftHandRing1
                {
                  OFFSET 8.5234 0.597198 -2.0164
                  CHANNELS 3 Zrotation Xrotation Yrotation
                  JOINT LeftHandRing2
                  {
                    OFFSET 3.7188 -0.188293 -0.2328
                    CHANNELS 3 Zrotation Xrotation Yrotation
                    JOINT LeftHandRing3
                    {
                      OFFSET 2.1191 -0.106598 -0.1332
                      CHANNELS 3 Zrotation Xrotation Yrotation
                      End Site
                      {
                        OFFSET 1.8737 -0.2304 -0.0886
                      }
                    }
                  }
                }
                JOINT LeftHandPinky1
                {
                  OFFSET 7.9094 -0.601089 -3.4825
                  CHANNELS 3 Zrotation Xrotation Yrotation
                  JOINT LeftHandPinky2
                  {
                    OFFSET 2.2874 -0.477005 -0.6314
                    CHANNELS 3 Zrotation Xrotation Yrotation
                    JOINT LeftHandPinky3
                    {
                      OFFSET 1.6774 -0.349396 -0.4633
                      CHANNELS 3 Zrotation Xrotation Yrotation
                      End Site
                      {
                        OFFSET 1.4888 -0.4091 -0.3416
                      }
                    }
                  }
                }
                JOINT LeftHandThumb1
                {
                  OFFSET 1.833 -1.3875 1.3896
                  CHANNELS 3 Zrotation Xrotation Yrotation
                  JOINT LeftHandThumb2
                  {
                    OFFSET 3.4129 -1.121 2.5732
                    CHANNELS 3 Zrotation Xrotation Yrotation
                    JOINT LeftHandThumb3
                    {
                      OFFSET 2.2474 -0.804199 1.6192
                      CHANNELS 3 Zrotation Xrotation Yrotation
                      End Site
                      {
                        OFFSET 1.6527 -0.5689 1.1317
                      }
                    }
                  }
                }
              }
            }
          }
        }
        JOINT RightShoulder
        {
          OFFSET -2.2086 21.1115 7.2329
          CHANNELS 3 Zrotation Xrotation Yrotation
          JOINT RightArm
          {
            OFFSET -13.1216 3.0287 -4.9007
            CHANNELS 3 Zrotation Xrotation Yrotation
            JOINT RightForeArm
            {
              OFFSET -27.4081 -0.0973053 -0.2375
              CHANNELS 3 Zrotation Xrotation Yrotation
              JOINT RightHand
              {
                OFFSET -22.8641 0.0664063 -0.1369
                CHANNELS 3 Zrotation Xrotation Yrotation
                JOINT RightHandIndex1
                {
                  OFFSET -8.8614 0.774994 2.4612
                  CHANNELS 3 Zrotation Xrotation Yrotation
                  JOINT RightHandIndex2
                  {
                    OFFSET -3.3146 -0.808304 0.5841
                    CHANNELS 3 Zrotation Xrotation Yrotation
                    JOINT RightHandIndex3
                    {
                      OFFSET -2.2628 -0.552002 0.3989
                      CHANNELS 3 Zrotation Xrotation Yrotation
                      End Site
                      {
                        OFFSET -1.6102 -0.4807 0.2612
                      }
                    }
                  }
                }
                JOINT RightHandMiddle1
                {
                  OFFSET -8.9937 0.894989 0.2143
                  CHANNELS 3 Zrotation Xrotation Yrotation
                  JOINT RightHandMiddle2
                  {
                    OFFSET -4.0984 0.0113983 -0.0242
                    CHANNELS 3 Zrotation Xrotation Yrotation
                    JOINT RightHandMiddle3
                    {
                      OFFSET -2.2716 0.00691223 -0.0138001
                      CHANNELS 3 Zrotation Xrotation Yrotation
                      End Site
                      {
                        OFFSET -2.0404 -0.1441 0.0027
                      }
                    }
                  }
                }
                JOINT RightHandRing1
                {
                  OFFSET -8.5234 0.597198 -2.0164
                  CHANNELS 3 Zrotation Xrotation Yrotation
                  JOINT RightHandRing2
                  {
                    OFFSET -3.7188 -0.188309 -0.2328
                    CHANNELS 3 Zrotation Xrotation Yrotation
                    JOINT RightHandRing3
                    {
                      OFFSET -2.1191 -0.106598 -0.1332
                      CHANNELS 3 Zrotation Xrotation Yrotation
                      End Site
                      {
                        OFFSET -1.8737 -0.2304 -0.0886
                      }
                    }
                  }
                }
                JOINT RightHandPinky1
                {
                  OFFSET -7.9094 -0.601105 -3.4825
                  CHANNELS 3 Zrotation Xrotation Yrotation
                  JOINT RightHandPinky2
                  {
                    OFFSET -2.2874 -0.477005 -0.6314
                    CHANNELS 3 Zrotation Xrotation Yrotation
                    JOINT RightHandPinky3
                    {
                      OFFSET -1.6774 -0.349396 -0.4633
                      CHANNELS 3 Zrotation Xrotation Yrotation
                      End Site
                      {
                        OFFSET -1.4888 -0.4091 -0.3416
                      }
                    }
                  }
                }
                JOINT RightHandThumb1
                {
                  OFFSET -1.833 -1.38751 1.3896
                  CHANNELS 3 Zrotation Xrotation Yrotation
                  JOINT RightHandThumb2
                  {
                    OFFSET -3.41299 -1.12099 2.5732
                    CHANNELS 3 Zrotation Xrotation Yrotation
                    JOINT RightHandThumb3
                    {
                      OFFSET -2.24741 -0.804108 1.6192
                      CHANNELS 3 Zrotation Xrotation Yrotation
                      End Site
                      {
                        OFFSET -1.6527 -0.5689 1.1317
                      }
                    }
                  }
                }
              }
            }
          }
        }
      }
    }
  }
  JOINT RightUpLeg
  {
    OFFSET -9.1966 3.8861 -0.7581
    CHANNELS 3 Zrotation Xrotation Yrotation
    JOINT RightLeg
    {
      OFFSET -0.7359 -41.0265 0
      CHANNELS 3 Zrotation Xrotation Yrotation
      JOINT RightFoot
      {
        OFFSET 0 -40.2855 0
        CHANNELS 3 Zrotation Xrotation Yrotation
        JOINT RightToeBase
        {
          OFFSET 0 -5.6122 11.7359
          CHANNELS 3 Zrotation Xrotation Yrotation
          End Site
          {
            OFFSET 0 0 7.8731
          }
        }
      }
    }
  }
  JOINT LeftUpLeg
  {
    OFFSET 9.1965 3.8864 -0.7581
    CHANNELS 3 Zrotation Xrotation Yrotation
    JOINT LeftLeg
    {
      OFFSET 0.7359 -41.0268 0
      CHANNELS 3 Zrotation Xrotation Yrotation
      JOINT LeftFoot
      {
        OFFSET 0 -40.2855 0
        CHANNELS 3 Zrotation Xrotation Yrotation
        JOINT LeftToeBase
        {
          OFFSET 0 -5.6122 11.7359
          CHANNELS 3 Zrotation Xrotation Yrotation
          End Site
          {
            OFFSET 0 0 7.8731
          }
        }
      }
    }
  }
}
MOTION
Frames:	4
Frame Time:	0.0333333
5.84602e-005 68.8428 3.50346 0 0 -0 0 0 -0 0 0 -0 0 0 -0 0 0 -0 0 0 -0 0 0 -0 0 0 -0 0 0 -0 0 0 -0 0 0 -0 0 0 -0 0 0 -0 0 0 -0 -0.0146107 -8.87603e-005 -2.63497e-007 2.99804e-018 -2.42657e-020 -1.42182e-022 0 0 -0 -0.0187562 -0.001176 5.858e-005 5.06224e-018 3.88251e-019 1.21329e-020 0 0 -0 -0.012269 -0.00324817 0.000675346 -1.74678e-018 3.88251e-019 -0 0 0 -0 0 0 -0 0 0 -0 0 0 -0 0 0 -0 0 0 -0 0 0 -0 0 0 -0 0 0 -0 0 0 -0 0 0 -0 0.0149955 -9.10982e-005 2.64101e-007 -9.69331e-018 1.21329e-020 -4.7394e-023 0 0 -0 0.0189956 -0.00119102 -5.96516e-005 -5.41541e-019 0 2.42657e-020 0 0 -0 0.0122698 -0.00324857 -0.000673756 -2.00796e-019 0 -1.94126e-019 0 0 -0 0 0 -0 0 0 -0 3.39842 1.33031 -0.0637918 -5.65207e-008 0.834868 -0.000436188 -3.39935 -2.16518 -0.0642563 -8.89002e-024 -1.18485e-023 -1.48106e-024 -3.39844 1.35642 0.0640283 -3.18788e-007 0.782166 -0.000588827 3.39931 -2.13858 0.0634662 1.1399e-023 0 -0 
-2.55296 1.35689 14.2038 -5.52494e-015 12.0025 180 -0.41671 5.63723 0.168686 -0.856456 11.273 0.381593 -0.856457 11.273 0.381593 -1.65013e-005 -0.23574 3.43765e-006 0.0996641 -0.180097 0.000156404 -16.2712 -44.6049 11.5147 -44.1179 6.23296 -6.70614 -61.7232 54.1328 -44.4071 31.6978 30.2993 6.58187 -2.56472e-032 -4.34841e-016 -3.37934e-015 -1.59028e-015 -7.29291e-015 -4.17448e-015 -3.18055e-015 -1.0958e-014 -4.96962e-015 -2.56472e-032 -4.34841e-016 -3.37934e-015 -0.0146077 -8.93617e-005 -9.83819e-006 -9.22973e-007 -1.9178e-006 9.88587e-007 -2.56472e-032 -4.34841e-016 -3.37934e-015 -0.0187449 -0.00117712 6.24648e-005 3.18055e-015 -3.72721e-016 -1.98785e-016 -2.56472e-032 -4.34841e-016 -3.37934e-015 -0.0122672 -0.00324628 0.000680251 1.59028e-015 -9.93923e-017 9.93923e-016 -2.56472e-032 -4.34841e-016 -3.37934e-015 -1.59028e-015 -7.29291e-015 -4.17448e-015 -3.18055e-015 -1.0958e-014 -4.96962e-015 -3.79272 -43.5512 -22.802 43.4383 5.83029 7.81305 50.6233 47.7875 38.5838 -23.7863 5.55838 12.4079 -2.38588e-007 -4.23245e-006 4.17351e-007 -1.59028e-015 7.3923e-015 -2.43511e-015 1.99693e-006 -2.23552e-006 -9.29412e-007 -2.38588e-007 -4.23245e-006 4.17351e-007 0.0149952 -8.99632e-005 2.19141e-006 1.99676e-006 -2.23564e-006 -9.29121e-007 -2.38588e-007 -4.23245e-006 4.17351e-007 0.0189801 -0.00118445 -6.01889e-005 1.21365e-006 -5.24989e-006 -4.8626e-006 -2.38588e-007 -4.23245e-006 4.17351e-007 0.0122921 -0.00325056 -0.000679406 1.99678e-006 -2.23557e-006 -9.29221e-007 -2.38588e-007 -4.23245e-006 4.17351e-007 -1.59028e-015 7.3923e-015 -2.43511e-015 1.99693e-006 -2.23552e-006 -9.29412e-007 -93.847 -35.7658 -149.464 -171.31 58.0753 167.108 28.8313 30.8508 -6.615 2.08458e-008 -3.28344e-008 -1.19812e-006 96.633 -26.4587 148.461 170.828 59.5851 -166.588 -29.4454 42.1397 8.08062 -3.03437e-007 -3.82634e-007 -6.5954e-007 
-2.55255 1.41638 13.9502 -5.43984e-015 12.6657 180 -0.418871 5.42893 0.163922 -0.859253 10.8565 0.37043 -0.859253 10.8565 0.37043 7.95581e-007 -0.235458 8.75562e-007 0.0994157 -0.179647 0.000155709 -16.3106 -43.7866 11.9775 -44.1179 6.23297 -6.70614 -61.3913 53.9322 -44.2242 31.0096 30.249 7.03953 -4.90745e-032 2.57178e-015 1.09332e-015 2.14337e-032 2.74571e-015 -4.47266e-016 3.18055e-015 2.57178e-015 2.88238e-015 -4.90745e-032 2.57178e-015 1.09332e-015 -0.0146004 -9.01359e-005 -3.63617e-006 1.59028e-015 -1.00386e-014 5.46658e-016 -4.90745e-032 2.57178e-015 1.09332e-015 -0.0187444 -0.00117731 5.57448e-005 3.18055e-015 -1.09456e-014 7.95139e-016 -4.90745e-032 2.57178e-015 1.09332e-015 -0.0122659 -0.00324586 0.000670228 -4.53891e-032 -4.02539e-015 -6.4605e-016 -4.90745e-032 2.57178e-015 1.09332e-015 2.14337e-032 2.74571e-015 -4.47266e-016 3.18055e-015 2.57178e-015 2.88238e-015 -3.00241 -42.9353 -22.6217 43.1693 5.80439 7.74113 50.3304 47.6298 38.4293 -23.0205 5.94439 11.9187 -3.18055e-015 9.37394e-015 4.96962e-016 -2.3409e-007 -4.23464e-006 4.13327e-007 4.23464e-006 -2.34091e-007 -2.2733e-006 -3.18055e-015 9.37394e-015 4.96962e-016 0.0149795 -9.66933e-005 -6.35699e-006 4.23459e-006 -2.34387e-007 -2.27327e-006 -3.18055e-015 9.37394e-015 4.96962e-016 0.0189936 -0.00119943 -5.94509e-005 4.23455e-006 -2.34461e-007 -2.2733e-006 -3.18055e-015 9.37394e-015 4.96962e-016 0.0122641 -0.00325875 -0.000679997 4.23454e-006 -2.34297e-007 -2.27339e-006 -3.18055e-015 9.37394e-015 4.96962e-016 -2.3409e-007 -4.23464e-006 4.13327e-007 4.23464e-006 -2.34091e-007 -2.2733e-006 -93.3177 -35.6641 -148.553 -171.317 57.7842 167.088 28.7141 30.7533 -6.33215 -4.25556e-007 1.54922e-006 -1.88841e-006 96.2472 -26.3126 147.646 170.841 59.2979 -166.572 -29.1951 42.108 7.73052 9.93923e-017 3.97569e-016 -0 
-2.55215 1.47693 13.697 -5.35392e-015 13.3318 180 -0.421033 5.21963 0.159143 -0.862097 10.438 0.359236 -0.862096 10.438 0.359236 -3.63505e-005 -0.234134 9.54612e-006 0.0991646 -0.179196 0.000155011 -16.3586 -42.9675 12.4353 -44.1179 6.23297 -6.70615 -61.0597 53.732 -44.0401 30.322 30.1939 7.49638 -3.18055e-015 -5.50385e-015 -1.19271e-015 -1.59028e-015 9.81499e-016 3.97569e-016 -1.59028e-015 1.03617e-014 2.98177e-016 -3.18055e-015 -5.50385e-015 -1.19271e-015 -0.0146234 -9.0019e-005 -3.11207e-006 -1.7525e-006 5.8699e-008 -5.48275e-006 -3.18055e-015 -5.50385e-015 -1.19271e-015 -0.0187608 -0.00117836 5.82201e-005 3.18055e-015 -3.91357e-015 -1.09332e-015 -3.18055e-015 -5.50385e-015 -1.19271e-015 -0.012286 -0.00324675 0.000676519 -8.01297e-007 3.00056e-006 -3.91703e-006 -3.18055e-015 -5.50385e-015 -1.19271e-015 -1.59028e-015 9.81499e-016 3.97569e-016 -1.59028e-015 1.03617e-014 2.98177e-016 -2.22171 -42.317 -22.4545 42.9003 5.77883 7.66909 50.0376 47.4727 38.274 -22.25 6.32429 11.4235 -3.18055e-015 -3.3048e-015 -1.2424e-015 1.47418e-032 -2.83268e-015 2.98177e-016 -1.45208e-033 4.78326e-016 1.73937e-016 -3.18055e-015 -3.3048e-015 -1.2424e-015 0.0149957 -8.99743e-005 3.85672e-006 6.36111e-015 2.20527e-015 -2.23633e-016 -3.18055e-015 -3.3048e-015 -1.2424e-015 0.0190219 -0.00119136 -5.49498e-005 1.59028e-015 1.25172e-014 -3.23025e-015 -3.18055e-015 -3.3048e-015 -1.2424e-015 0.0122646 -0.00324275 -0.00066654 4.48072e-032 -1.84497e-015 1.39149e-015 -3.18055e-015 -3.3048e-015 -1.2424e-015 1.47418e-032 -2.83268e-015 2.98177e-016 -1.45208e-033 4.78326e-016 1.73937e-016 -92.791 -35.555 -147.644 -171.325 57.4929 167.068 28.5976 30.6552 -6.04995 -3.47873e-016 3.97569e-016 -0 95.864 -26.1609 146.833 170.854 59.0106 -166.556 -28.9454 42.0752 7.381 -2.06813e-008 -3.2284e-008 1.19814e-006 
